<?xml version="1.0" encoding="UTF-8"?>
<!-- Simple Google G mark (for use as icon) -->
<svg xmlns="http://www.w3.org/2000/svg" viewBox="0 0 48 48" width="48" height="48">
  <defs>
    <clipPath id="a"><path d="M0 0h48v48H0z"/></clipPath>
  </defs>
  <g clip-path="url(#a)">
    <path fill="#4285F4" d="M24 9.5c3.9 0 6.6 1.7 8.1 3.1l6-5.8C34.8 4 29.9 2 24 2 14.9 2 7.4 7.6 4.2 15.4l7.6 5.9C13 15.2 18 9.5 24 9.5z"/>
    <path fill="#34A853" d="M46.6 24.5c0-1.6-.2-2.8-.5-4.1H24v8h12.7c-.5 2.6-2.5 5-6.1 6.9l6 4.6C43.9 36.8 46.6 31.9 46.6 24.5z"/>
    <path fill="#FBBC05" d="M11.8 29.8A14.1 14.1 0 0 1 10.5 24c0-1.3.2-2.6.5-3.8L4.2 14.1C2.2 17.9 1 21.8 1 25.9c0 4.1 1.2 8 3.3 11.6l7.5-7.7z"/>
    <path fill="#EA4335" d="M24 44c5.9 0 10.8-1.9 14.3-5.1l-6-4.6c-2 1.4-4.6 2.3-8.3 2.3-6 0-11-5.6-11.8-13.2l-7.6 6C7.4 40.4 14.9 46 24 46v-2z"/>
  </g>
</svg>
